<svg width="50" height="44" viewBox="0 0 50 44" fill="none" xmlns="http://www.w3.org/2000/svg">
<path d="M43.4169 3.99667L35.2294 5.42667L40.9377 11.9167L45.0419 11.1833L43.4169 3.99667ZM29.1044 6.49001L25.0002 7.20501L30.7294 13.6767L34.8127 12.9617L29.1044 6.49001ZM18.8961 8.25001L14.7919 9.00167L20.5211 15.4733L24.6044 14.7583L18.8961 8.25001ZM8.66689 10.0833L6.62523 10.4317C5.54269 10.622 4.59023 11.1826 3.97698 11.9904C3.36373 12.7982 3.13981 13.7871 3.35439 14.74L4.16689 18.3333L14.3752 16.555L8.66689 10.0833ZM4.16689 18.3333V36.6667C4.16689 38.7017 6.04189 40.3333 8.33356 40.3333H41.6669C43.9794 40.3333 45.8336 38.7017 45.8336 36.6667V18.3333H4.16689Z" fill="white"/>
</svg>
